<svg width="1170" height="56" viewBox="0 0 1170 56" fill="none" xmlns="http://www.w3.org/2000/svg">
<rect y="-0.00189209" width="160" height="56" rx="28" fill="#894189"/>
<path d="M0 27.9981C0 12.5341 12.536 -0.00189209 28 -0.00189209H45.2619C50.9006 -0.00189209 54.7697 5.67515 52.708 10.9233L36.9682 50.9881C35.7808 54.0105 32.8645 55.9981 29.6172 55.9981H28C12.536 55.9981 0 43.4621 0 27.9981Z" fill="white" fill-opacity="0.07"/>
<path d="M36.6175 34.9981V20.4527H38.8121V33.1089H45.4031V34.9981H36.6175ZM47.7362 34.9981V24.089H49.8597V34.9981H47.7362ZM48.8086 22.4058C48.4393 22.4058 48.122 22.2827 47.8569 22.0365C47.5965 21.7855 47.4663 21.4872 47.4663 21.1416C47.4663 20.7912 47.5965 20.4929 47.8569 20.2467C48.122 19.9957 48.4393 19.8703 48.8086 19.8703C49.1779 19.8703 49.4928 19.9957 49.7532 20.2467C50.0183 20.4929 50.1509 20.7912 50.1509 21.1416C50.1509 21.4872 50.0183 21.7855 49.7532 22.0365C49.4928 22.2827 49.1779 22.4058 48.8086 22.4058ZM57.9084 24.089V25.7936H51.7436V24.089H57.9084ZM53.4339 34.9981V22.8248C53.4339 22.143 53.5831 21.5772 53.8814 21.1274C54.1797 20.6728 54.575 20.3343 55.0675 20.1117C55.5599 19.8845 56.0949 19.7708 56.6726 19.7708C57.0987 19.7708 57.4633 19.8063 57.7663 19.8774C58.0694 19.9437 58.2943 20.0052 58.4411 20.062L57.9439 21.7808C57.8445 21.7524 57.7166 21.7192 57.5604 21.6813C57.4041 21.6387 57.2147 21.6174 56.9922 21.6174C56.4761 21.6174 56.1068 21.7453 55.8842 22.0009C55.6664 22.2566 55.5575 22.6259 55.5575 23.1089V34.9981H53.4339ZM64.3714 35.2183C63.2966 35.2183 62.371 34.9886 61.5945 34.5294C60.8227 34.0653 60.2261 33.4143 59.8047 32.5762C59.388 31.7334 59.1797 30.7462 59.1797 29.6146C59.1797 28.4972 59.388 27.5123 59.8047 26.66C60.2261 25.8078 60.8132 25.1425 61.5661 24.6643C62.3236 24.1861 63.209 23.947 64.2223 23.947C64.8378 23.947 65.4344 24.0488 66.0121 24.2524C66.5897 24.456 67.1082 24.7756 67.5675 25.2112C68.0268 25.6468 68.389 26.2126 68.6541 26.9086C68.9193 27.5999 69.0518 28.4403 69.0518 29.4299V30.1828H60.38V28.5919H66.9709C66.9709 28.0331 66.8572 27.5384 66.63 27.1075C66.4027 26.6719 66.0831 26.3286 65.6712 26.0777C65.264 25.8267 64.7857 25.7012 64.2365 25.7012C63.6399 25.7012 63.1191 25.848 62.674 26.1416C62.2337 26.4304 61.8928 26.8092 61.6513 27.2779C61.4145 27.742 61.2962 28.2462 61.2962 28.7907V30.0336C61.2962 30.7628 61.424 31.3831 61.6797 31.8944C61.9401 32.4058 62.3023 32.7964 62.7663 33.0663C63.2304 33.3314 63.7725 33.464 64.3928 33.464C64.7952 33.464 65.1622 33.4072 65.4936 33.2936C65.825 33.1752 66.1115 33 66.353 32.768C66.5945 32.536 66.7791 32.2495 66.907 31.9086L68.9169 32.2708C68.7559 32.8627 68.4671 33.3812 68.0504 33.8262C67.6385 34.2666 67.12 34.6099 66.495 34.8561C65.8748 35.0975 65.1669 35.2183 64.3714 35.2183Z" fill="white"/>
<path d="M88.5858 37.8932L88.5777 37.8897L88.552 37.8757C88.4018 37.7931 88.2529 37.7083 88.1052 37.6214C86.3293 36.5661 84.6697 35.3265 83.1538 33.923C80.4693 31.4182 77.625 27.7012 77.625 23.1232C77.625 19.7072 80.4997 16.9982 83.9693 16.9982C84.9339 16.9935 85.8871 17.2063 86.758 17.6207C87.629 18.0352 88.3953 18.6407 89 19.3922C89.6048 18.6405 90.3713 18.035 91.2425 17.6205C92.1137 17.206 93.0671 16.9933 94.0318 16.9982C97.5003 16.9982 100.375 19.7072 100.375 23.1232C100.375 27.7024 97.5307 31.4194 94.8462 33.9219C93.3304 35.3253 91.6707 36.565 89.8948 37.6202C89.7471 37.7075 89.5982 37.7927 89.448 37.8757L89.4223 37.8897L89.4142 37.8944L89.4107 37.8955C89.2842 37.9625 89.1432 37.9976 89 37.9976C88.8568 37.9976 88.7158 37.9625 88.5893 37.8955L88.5858 37.8932Z" fill="white"/>
<path d="M98.8933 35.9649L102.083 29.7316H99.8833V25.6982L96.5833 31.9316H98.8933V35.9649ZM99.3333 38.1649C98.3189 38.1649 97.3656 37.9724 96.4733 37.5874C95.5811 37.2024 94.805 36.6799 94.145 36.0199C93.485 35.3599 92.9625 34.5838 92.5775 33.6916C92.1925 32.7993 92 31.846 92 30.8316C92 29.8171 92.1925 28.8638 92.5775 27.9716C92.9625 27.0793 93.485 26.3032 94.145 25.6432C94.805 24.9832 95.5811 24.4607 96.4733 24.0757C97.3656 23.6907 98.3189 23.4982 99.3333 23.4982C100.348 23.4982 101.301 23.6907 102.193 24.0757C103.086 24.4607 103.862 24.9832 104.522 25.6432C105.182 26.3032 105.704 27.0793 106.089 27.9716C106.474 28.8638 106.667 29.8171 106.667 30.8316C106.667 31.846 106.474 32.7993 106.089 33.6916C105.704 34.5838 105.182 35.3599 104.522 36.0199C103.862 36.6799 103.086 37.2024 102.193 37.5874C101.301 37.9724 100.348 38.1649 99.3333 38.1649Z" fill="#894189"/>
<path d="M99.2667 35.4982L102.167 29.8315H100.167V26.1649L97.1667 31.8315H99.2667V35.4982ZM99.6667 37.4982C98.7444 37.4982 97.8778 37.3232 97.0667 36.9732C96.2556 36.6232 95.55 36.1482 94.95 35.5482C94.35 34.9482 93.875 34.2426 93.525 33.4315C93.175 32.6204 93 31.7537 93 30.8315C93 29.9093 93.175 29.0426 93.525 28.2315C93.875 27.4204 94.35 26.7149 94.95 26.1149C95.55 25.5149 96.2556 25.0399 97.0667 24.6899C97.8778 24.3399 98.7444 24.1649 99.6667 24.1649C100.589 24.1649 101.456 24.3399 102.267 24.6899C103.078 25.0399 103.783 25.5149 104.383 26.1149C104.983 26.7149 105.458 27.4204 105.808 28.2315C106.158 29.0426 106.333 29.9093 106.333 30.8315C106.333 31.7537 106.158 32.6204 105.808 33.4315C105.458 34.2426 104.983 34.9482 104.383 35.5482C103.783 36.1482 103.078 36.6232 102.267 36.9732C101.456 37.3232 100.589 37.4982 99.6667 37.4982Z" fill="white"/>
<path d="M121.858 20.4527V34.9981H119.656V22.6544H119.571L116.091 24.9271V22.8248L119.72 20.4527H121.858Z" fill="white"/>
<rect x="1000" y="-0.00189209" width="170" height="56" rx="28" fill="#360490"/>
<path d="M1042.88 24.2737C1042.81 23.6013 1042.5 23.0805 1041.95 22.7112C1041.4 22.3371 1040.71 22.1501 1039.87 22.1501C1039.28 22.1501 1038.76 22.2448 1038.33 22.4342C1037.89 22.6188 1037.55 22.8745 1037.31 23.2012C1037.07 23.5232 1036.95 23.8902 1036.95 24.3021C1036.95 24.6477 1037.03 24.946 1037.2 25.197C1037.36 25.4479 1037.58 25.6586 1037.84 25.8291C1038.11 25.9948 1038.4 26.1345 1038.71 26.2481C1039.02 26.357 1039.31 26.447 1039.6 26.518L1041.02 26.8873C1041.48 27.0009 1041.96 27.1548 1042.44 27.349C1042.93 27.5431 1043.38 27.7988 1043.8 28.116C1044.22 28.4332 1044.55 28.8262 1044.81 29.295C1045.07 29.7637 1045.2 30.3248 1045.2 30.9782C1045.2 31.8021 1044.99 32.5336 1044.56 33.1728C1044.14 33.812 1043.53 34.3163 1042.72 34.6856C1041.92 35.0549 1040.95 35.2396 1039.82 35.2396C1038.73 35.2396 1037.79 35.0668 1036.99 34.7211C1036.19 34.3755 1035.57 33.8854 1035.12 33.2509C1034.67 32.6117 1034.42 31.8542 1034.38 30.9782H1036.58C1036.62 31.5038 1036.79 31.9418 1037.09 32.2921C1037.39 32.6378 1037.78 32.8958 1038.25 33.0663C1038.72 33.232 1039.24 33.3149 1039.8 33.3149C1040.42 33.3149 1040.97 33.2178 1041.46 33.0237C1041.94 32.8248 1042.33 32.5502 1042.61 32.1998C1042.89 31.8447 1043.03 31.4304 1043.03 30.9569C1043.03 30.526 1042.9 30.1733 1042.66 29.8987C1042.42 29.6241 1042.09 29.3968 1041.67 29.2169C1041.26 29.0369 1040.79 28.8783 1040.27 28.741L1038.55 28.2723C1037.39 27.955 1036.46 27.4886 1035.78 26.8731C1035.11 26.2576 1034.77 25.4432 1034.77 24.4299C1034.77 23.5919 1034.99 22.8603 1035.45 22.2353C1035.9 21.6103 1036.52 21.125 1037.3 20.7794C1038.07 20.429 1038.95 20.2538 1039.92 20.2538C1040.91 20.2538 1041.78 20.4266 1042.53 20.7723C1043.29 21.1179 1043.88 21.5938 1044.32 22.1998C1044.76 22.8011 1044.98 23.4924 1045 24.2737H1042.88ZM1052.25 35.2183C1051.19 35.2183 1050.28 34.9792 1049.52 34.5009C1048.76 34.018 1048.18 33.3527 1047.77 32.5052C1047.37 31.6577 1047.16 30.687 1047.16 29.5933C1047.16 28.4853 1047.37 27.5076 1047.79 26.66C1048.2 25.8078 1048.79 25.1425 1049.55 24.6643C1050.31 24.1861 1051.2 23.947 1052.23 23.947C1053.05 23.947 1053.79 24.1009 1054.44 24.4086C1055.09 24.7116 1055.61 25.1378 1056.01 25.687C1056.41 26.2363 1056.65 26.8778 1056.73 27.6117H1054.66C1054.55 27.1004 1054.29 26.66 1053.88 26.2907C1053.48 25.9214 1052.94 25.7367 1052.26 25.7367C1051.67 25.7367 1051.15 25.893 1050.71 26.2055C1050.27 26.5133 1049.92 26.9536 1049.68 27.5265C1049.43 28.0947 1049.31 28.767 1049.31 29.5436C1049.31 30.339 1049.43 31.0256 1049.67 31.6032C1049.91 32.1809 1050.25 32.6283 1050.69 32.9456C1051.14 33.2628 1051.66 33.4214 1052.26 33.4214C1052.66 33.4214 1053.03 33.348 1053.36 33.2012C1053.69 33.0497 1053.96 32.8343 1054.19 32.5549C1054.41 32.2756 1054.57 31.9394 1054.66 31.5464H1056.73C1056.65 32.2519 1056.42 32.8816 1056.04 33.4356C1055.66 33.9896 1055.14 34.4252 1054.5 34.7424C1053.86 35.0597 1053.11 35.2183 1052.25 35.2183ZM1063.59 35.2183C1062.57 35.2183 1061.68 34.9839 1060.92 34.5152C1060.16 34.0464 1059.56 33.3906 1059.14 32.5478C1058.72 31.705 1058.51 30.7202 1058.51 29.5933C1058.51 28.4616 1058.72 27.4721 1059.14 26.6245C1059.56 25.777 1060.16 25.1188 1060.92 24.6501C1061.68 24.1813 1062.57 23.947 1063.59 23.947C1064.62 23.947 1065.51 24.1813 1066.27 24.6501C1067.03 25.1188 1067.63 25.777 1068.05 26.6245C1068.47 27.4721 1068.68 28.4616 1068.68 29.5933C1068.68 30.7202 1068.47 31.705 1068.05 32.5478C1067.63 33.3906 1067.03 34.0464 1066.27 34.5152C1065.51 34.9839 1064.62 35.2183 1063.59 35.2183ZM1063.6 33.4356C1064.26 33.4356 1064.81 33.2604 1065.25 32.91C1065.69 32.5597 1066.01 32.0933 1066.22 31.5109C1066.43 30.9285 1066.54 30.2869 1066.54 29.5862C1066.54 28.8902 1066.43 28.2509 1066.22 27.6686C1066.01 27.0814 1065.69 26.6103 1065.25 26.2552C1064.81 25.9001 1064.26 25.7225 1063.6 25.7225C1062.93 25.7225 1062.38 25.9001 1061.94 26.2552C1061.5 26.6103 1061.18 27.0814 1060.97 27.6686C1060.76 28.2509 1060.65 28.8902 1060.65 29.5862C1060.65 30.2869 1060.76 30.9285 1060.97 31.5109C1061.18 32.0933 1061.5 32.5597 1061.94 32.91C1062.38 33.2604 1062.93 33.4356 1063.6 33.4356ZM1071.05 34.9981V24.089H1073.1V25.822H1073.22C1073.42 25.2348 1073.77 24.7732 1074.27 24.437C1074.77 24.0961 1075.35 23.9257 1075.99 23.9257C1076.12 23.9257 1076.28 23.9304 1076.46 23.9399C1076.64 23.9493 1076.78 23.9612 1076.89 23.9754V26.0066C1076.8 25.983 1076.65 25.9569 1076.43 25.9285C1076.22 25.8954 1076 25.8788 1075.78 25.8788C1075.28 25.8788 1074.83 25.9853 1074.44 26.1984C1074.05 26.4067 1073.74 26.6979 1073.52 27.072C1073.29 27.4413 1073.17 27.8627 1073.17 28.3362V34.9981H1071.05ZM1083.04 35.2183C1081.96 35.2183 1081.04 34.9886 1080.26 34.5294C1079.49 34.0653 1078.89 33.4143 1078.47 32.5762C1078.05 31.7334 1077.85 30.7462 1077.85 29.6146C1077.85 28.4972 1078.05 27.5123 1078.47 26.66C1078.89 25.8078 1079.48 25.1425 1080.23 24.6643C1080.99 24.1861 1081.88 23.947 1082.89 23.947C1083.5 23.947 1084.1 24.0488 1084.68 24.2524C1085.26 24.456 1085.77 24.7756 1086.23 25.2112C1086.69 25.6468 1087.05 26.2126 1087.32 26.9086C1087.59 27.5999 1087.72 28.4403 1087.72 29.4299V30.1828H1079.05V28.5919H1085.64C1085.64 28.0331 1085.52 27.5384 1085.3 27.1075C1085.07 26.6719 1084.75 26.3286 1084.34 26.0777C1083.93 25.8267 1083.45 25.7012 1082.9 25.7012C1082.31 25.7012 1081.79 25.848 1081.34 26.1416C1080.9 26.4304 1080.56 26.8092 1080.32 27.2779C1080.08 27.742 1079.96 28.2462 1079.96 28.7907V30.0336C1079.96 30.7628 1080.09 31.3831 1080.35 31.8944C1080.61 32.4058 1080.97 32.7964 1081.43 33.0663C1081.9 33.3314 1082.44 33.464 1083.06 33.464C1083.46 33.464 1083.83 33.4072 1084.16 33.2936C1084.49 33.1752 1084.78 33 1085.02 32.768C1085.26 32.536 1085.45 32.2495 1085.57 31.9086L1087.58 32.2708C1087.42 32.8627 1087.13 33.3812 1086.72 33.8262C1086.3 34.2666 1085.79 34.6099 1085.16 34.8561C1084.54 35.0975 1083.83 35.2183 1083.04 35.2183Z" fill="white"/>
<path d="M1106.63 34.9926H1108.48V33.6695C1109.37 33.5107 1110.13 33.1667 1110.76 32.6374C1111.4 32.1082 1111.71 31.3231 1111.71 30.2823C1111.71 29.5413 1111.5 28.8621 1111.08 28.2447C1110.65 27.6272 1109.81 27.0891 1108.54 26.6305C1107.48 26.2776 1106.75 25.9689 1106.34 25.7043C1105.94 25.4396 1105.73 25.078 1105.73 24.6193C1105.73 24.1606 1105.9 23.799 1106.22 23.5343C1106.55 23.2697 1107.02 23.1374 1107.64 23.1374C1108.2 23.1374 1108.64 23.2741 1108.96 23.5476C1109.28 23.821 1109.51 24.1606 1109.65 24.5664L1111.34 23.8784C1111.15 23.2609 1110.79 22.7228 1110.27 22.2641C1109.75 21.8055 1109.17 21.5497 1108.54 21.4967V20.1736H1106.69V21.4967C1105.8 21.6908 1105.12 22.0789 1104.62 22.6611C1104.13 23.2433 1103.88 23.896 1103.88 24.6193C1103.88 25.4485 1104.12 26.1189 1104.61 26.6305C1105.09 27.1421 1105.86 27.5831 1106.9 27.9536C1108.01 28.3593 1108.78 28.721 1109.21 29.0385C1109.64 29.3561 1109.86 29.7707 1109.86 30.2823C1109.86 30.8645 1109.65 31.2923 1109.24 31.5657C1108.82 31.8392 1108.33 31.9759 1107.74 31.9759C1107.16 31.9759 1106.65 31.7951 1106.2 31.4334C1105.75 31.0717 1105.42 30.5293 1105.2 29.806L1103.46 30.494C1103.7 31.3408 1104.09 32.0244 1104.61 32.5448C1105.13 33.0653 1105.8 33.4225 1106.63 33.6166V34.9926ZM1107.59 38.1681C1106.12 38.1681 1104.74 37.8903 1103.46 37.3345C1102.17 36.7788 1101.05 36.0246 1100.1 35.072C1099.14 34.1193 1098.39 32.9991 1097.83 31.7113C1097.28 30.4234 1097 29.0474 1097 27.5831C1097 26.1188 1097.28 24.7428 1097.83 23.455C1098.39 22.1671 1099.14 21.0469 1100.1 20.0942C1101.05 19.1416 1102.17 18.3874 1103.46 17.8317C1104.74 17.276 1106.12 16.9981 1107.59 16.9981C1109.05 16.9981 1110.43 17.276 1111.71 17.8317C1113 18.3874 1114.12 19.1416 1115.07 20.0942C1116.03 21.0469 1116.78 22.1671 1117.34 23.455C1117.89 24.7428 1118.17 26.1188 1118.17 27.5831C1118.17 29.0474 1117.89 30.4234 1117.34 31.7113C1116.78 32.9991 1116.03 34.1193 1115.07 35.072C1114.12 36.0246 1113 36.7788 1111.71 37.3345C1110.43 37.8903 1109.05 38.1681 1107.59 38.1681Z" fill="white"/>
<path d="M1133.36 20.4527V34.9981H1131.16V22.6544H1131.07L1127.59 24.9271V22.8248L1131.22 20.4527H1133.36Z" fill="white"/>
</svg>
